<?xml version="1.0" encoding="UTF-8"?>
<svg width="9px" height="8px" viewBox="0 0 9 8" version="1.1" xmlns="http://www.w3.org/2000/svg" xmlns:xlink="http://www.w3.org/1999/xlink">
    <!-- Generator: Sketch 43.2 (39069) - http://www.bohemiancoding.com/sketch -->
    <title>mid-x</title>
    <desc>Created with Sketch.</desc>
    <defs></defs>
    <g id="Symbols" stroke="none" stroke-width="1" fill="none" fill-rule="evenodd" fill-opacity="0.255349864">
        <g id="mid-x" fill-rule="nonzero" fill="#000000">
            <g id="Group-3" transform="translate(0.526467, -0.013811)">
                <path d="M0.83733971,1.52502173 L6.50550653,7.20072997 C6.70063883,7.39612188 7.01722125,7.39633235 7.21261316,7.20120005 C7.40800507,7.00606776 7.40821554,6.68948534 7.21308324,6.49409343 L1.54491642,0.818385192 C1.34978413,0.622993279 1.03320171,0.622782815 0.837809795,0.817915107 C0.642417882,1.0130474 0.642207417,1.32962982 0.83733971,1.52502173 Z" id="Line"></path>
                <path d="M6.50550653,0.818385192 L0.83733971,6.49409343 C0.642207417,6.68948534 0.642417882,7.00606776 0.837809795,7.20120005 C1.03320171,7.39633235 1.34978413,7.39612188 1.54491642,7.20072997 L7.21308324,1.52502173 C7.40821554,1.32962982 7.40800507,1.0130474 7.21261316,0.817915107 C7.01722125,0.622782815 6.70063883,0.622993279 6.50550653,0.818385192 Z" id="Line-Copy"></path>
            </g>
        </g>
    </g>
</svg>