<?xml version="1.0" encoding="UTF-8"?>
<svg width="19px" height="18px" viewBox="0 0 19 18" version="1.1" xmlns="http://www.w3.org/2000/svg" xmlns:xlink="http://www.w3.org/1999/xlink">
    <!-- Generator: Sketch 43.2 (39069) - http://www.bohemiancoding.com/sketch -->
    <title>big x</title>
    <desc>Created with Sketch.</desc>
    <defs></defs>
    <g id="Symbols" stroke="none" stroke-width="1" fill="none" fill-rule="evenodd" fill-opacity="0.451256793">
        <g id="big-x" fill-rule="nonzero" fill="#000000">
            <path d="M13.1437282,1.73223305 L1.73223305,13.1437282 C0.755922318,14.120039 0.755922318,15.7029514 1.73223305,16.6792621 C2.70854378,17.6555729 4.29145622,17.6555729 5.26776695,16.6792621 L16.6792621,5.26776695 C17.6555729,4.29145622 17.6555729,2.70854378 16.6792621,1.73223305 C15.7029514,0.755922318 14.120039,0.755922318 13.1437282,1.73223305 Z" id="Line"></path>
            <path d="M1.73223305,5.26776695 L13.1437282,16.6792621 C14.120039,17.6555729 15.7029514,17.6555729 16.6792621,16.6792621 C17.6555729,15.7029514 17.6555729,14.120039 16.6792621,13.1437282 L5.26776695,1.73223305 C4.29145622,0.755922318 2.70854378,0.755922318 1.73223305,1.73223305 C0.755922318,2.70854378 0.755922318,4.29145622 1.73223305,5.26776695 Z" id="Line-Copy"></path>
        </g>
    </g>
</svg>